HIERARCHY
ROOT hip
{
  OFFSET 0 0 0
  CHANNELS 6 Xposition Yposition Zposition Zrotation Yrotation Xrotation
  JOINT abdomen
  {
    OFFSET 0 20.6881 -0.73152
    CHANNELS 3 Zrotation Xrotation Yrotation
    JOINT chest
    {
      OFFSET 0 11.7043 -0.48768
      CHANNELS 3 Zrotation Xrotation Yrotation
      JOINT neck
      {
        OFFSET 0 22.1894 -2.19456
        CHANNELS 3 Zrotation Xrotation Yrotation
        JOINT head
        {
          OFFSET -0.24384 7.07133 1.2192
          CHANNELS 3 Zrotation Xrotation Yrotation
          JOINT leftEye
          {
            OFFSET 4.14528 8.04674 8.04672
            CHANNELS 3 Zrotation Xrotation Yrotation
            End Site
            {
              OFFSET 1 0 0
            }
          }
          JOINT rightEye
          {
            OFFSET -3.6576 8.04674 8.04672
            CHANNELS 3 Zrotation Xrotation Yrotation
            End Site
            {
              OFFSET 1 0 0
            }
          }
        }
      }
      JOINT rCollar
      {
        OFFSET -2.68224 19.2634 -4.8768
        CHANNELS 3 Zrotation Xrotation Yrotation
        JOINT rShldr
        {
          OFFSET -8.77824 -1.95073 1.46304
          CHANNELS 3 Zrotation Xrotation Yrotation
          JOINT rForeArm
          {
            OFFSET -28.1742 -1.7115 0.48768
            CHANNELS 3 Zrotation Xrotation Yrotation
            JOINT rHand
            {
              OFFSET -22.5879 0.773209 7.07136
              CHANNELS 3 Zrotation Xrotation Yrotation
              JOINT rThumb1
              {
                OFFSET -1.2192 -0.487915 3.41376
                CHANNELS 3 Zrotation Xrotation Yrotation
                JOINT rThumb2
                {
                  OFFSET -3.37035 -0.52449 3.41376
                  CHANNELS 3 Zrotation Xrotation Yrotation
                  End Site
                  {
                    OFFSET -1.78271 -1.18214 1.43049
                  }
                }
              }
              JOINT rIndex1
              {
                OFFSET -7.75947 0.938293 5.60832
                CHANNELS 3 Zrotation Xrotation Yrotation
                JOINT rIndex2
                {
                  OFFSET -2.54057 -0.884171 1.56538
                  CHANNELS 3 Zrotation Xrotation Yrotation
                  End Site
                  {
                    OFFSET -1.62519 -0.234802 1.16502
                  }
                }
              }
              JOINT rMid1
              {
                OFFSET -8.24714 1.18213 3.41376
                CHANNELS 3 Zrotation Xrotation Yrotation
                JOINT rMid2
                {
                  OFFSET -3.10165 -0.590103 1.0647
                  CHANNELS 3 Zrotation Xrotation Yrotation
                  End Site
                  {
                    OFFSET -2.48547 -0.328903 0.83742
                  }
                }
              }
              JOINT rRing1
              {
                OFFSET -8.82822 0.546677 1.51678
                CHANNELS 3 Zrotation Xrotation Yrotation
                JOINT rRing2
                {
                  OFFSET -2.60934 -0.819778 -0.0198488
                  CHANNELS 3 Zrotation Xrotation Yrotation
                  End Site
                  {
                    OFFSET -2.33842 -0.294052 0.168128
                  }
                }
              }
              JOINT rPinky1
              {
                OFFSET -8.27202 -0.0477905 -0.4584
                CHANNELS 3 Zrotation Xrotation Yrotation
                JOINT rPinky2
                {
                  OFFSET -1.82734 -0.647385 -0.700984
                  CHANNELS 3 Zrotation Xrotation Yrotation
                  End Site
                  {
                    OFFSET -1.69225 -0.51767 -0.607171
                  }
                }
              }
            }
          }
        }
      }
      JOINT lCollar
      {
        OFFSET 2.68224 19.2634 -4.8768
        CHANNELS 3 Zrotation Xrotation Yrotation
        JOINT lShldr
        {
          OFFSET 8.77824 -1.95073 1.46304
          CHANNELS 3 Zrotation Xrotation Yrotation
          JOINT lForeArm
          {
            OFFSET 28.1742 -1.7115 0.48768
            CHANNELS 3 Zrotation Xrotation Yrotation
            JOINT lHand
            {
              OFFSET 22.5879 0.773209 7.07136
              CHANNELS 3 Zrotation Xrotation Yrotation
              JOINT lThumb1
              {
                OFFSET 1.2192 -0.487915 3.41376
                CHANNELS 3 Zrotation Xrotation Yrotation
                JOINT lThumb2
                {
                  OFFSET 3.37035 -0.52449 3.41376
                  CHANNELS 3 Zrotation Xrotation Yrotation
                  End Site
                  {
                    OFFSET 1.78271 -1.18214 1.43049
                  }
                }
              }
              JOINT lIndex1
              {
                OFFSET 7.75947 0.938293 5.60832
                CHANNELS 3 Zrotation Xrotation Yrotation
                JOINT lIndex2
                {
                  OFFSET 2.54057 -0.884171 1.56538
                  CHANNELS 3 Zrotation Xrotation Yrotation
                  End Site
                  {
                    OFFSET 1.62519 -0.234802 1.16502
                  }
                }
              }
              JOINT lMid1
              {
                OFFSET 8.24714 1.18213 3.41376
                CHANNELS 3 Zrotation Xrotation Yrotation
                JOINT lMid2
                {
                  OFFSET 3.10165 -0.590103 1.0647
                  CHANNELS 3 Zrotation Xrotation Yrotation
                  End Site
                  {
                    OFFSET 2.48547 -0.328903 0.83742
                  }
                }
              }
              JOINT lRing1
              {
                OFFSET 8.82822 0.546677 1.51678
                CHANNELS 3 Zrotation Xrotation Yrotation
                JOINT lRing2
                {
                  OFFSET 2.60934 -0.819778 -0.0198488
                  CHANNELS 3 Zrotation Xrotation Yrotation
                  End Site
                  {
                    OFFSET 2.33842 -0.294052 0.168128
                  }
                }
              }
              JOINT lPinky1
              {
                OFFSET 8.27202 -0.0477905 -0.4584
                CHANNELS 3 Zrotation Xrotation Yrotation
                JOINT lPinky2
                {
                  OFFSET 1.82734 -0.647385 -0.700984
                  CHANNELS 3 Zrotation Xrotation Yrotation
                  End Site
                  {
                    OFFSET 1.69225 -0.51767 -0.607171
                  }
                }
              }
            }
          }
        }
      }
    }
  }
  JOINT rButtock
  {
    OFFSET -8.77824 4.35084 1.2192
    CHANNELS 3 Zrotation Xrotation Yrotation
    JOINT rThigh
    {
      OFFSET 0 -1.70687 -2.19456
      CHANNELS 3 Zrotation Xrotation Yrotation
      JOINT rShin
      {
        OFFSET 0 -36.8199 0.73152
        CHANNELS 3 Zrotation Xrotation Yrotation
        JOINT rFoot
        {
          OFFSET 0.73152 -45.1104 -5.12064
          CHANNELS 3 Zrotation Xrotation Yrotation
          End Site
          {
            OFFSET -1.1221 -3.69964 12.103
          }
        }
      }
    }
  }
  JOINT lButtock
  {
    OFFSET 8.77824 4.35084 1.2192
    CHANNELS 3 Zrotation Xrotation Yrotation
    JOINT lThigh
    {
      OFFSET 0 -1.70687 -2.19456
      CHANNELS 3 Zrotation Xrotation Yrotation
      JOINT lShin
      {
        OFFSET 0 -36.8199 0.73152
        CHANNELS 3 Zrotation Xrotation Yrotation
        JOINT lFoot
        {
          OFFSET -0.73152 -45.1104 -5.12064
          CHANNELS 3 Zrotation Xrotation Yrotation
          End Site
          {
            OFFSET 1.1221 -3.69964 12.103
          }
        }
      }
    }
  }
}
MOTION
Frames:	6
Frame Time:	0.00833333
75.3097 85.1731 27.8944 0.0 0.0 0.0 0.512929 -0.0034181 0.0146931 0.141686 -0.00540191 0.0245502 -2.09693e-14 -1.59028e-15 -2.48481e-16 -6.28688e-14 -6.36111e-15 -7.43889e-16 -0.0 0.0 0.0 -0.0 0.0 0.0 -1.04875e-14 3.68839e-18 9.93923e-17 -2.17963e-13 4.34841e-17 -2.38542e-15 -3.78978e-12 1.13884e-12 -1.27222e-14 -4.33719e-11 -1.11958e-12 -6.10667e-13 -1.02308e-10 4.22866e-14 -1.31993e-12 -1.76689e-10 6.99722e-14 -2.27966e-12 -1.02306e-10 4.65156e-14 -1.33265e-12 7.73091 5.47488 0.417314 -1.02306e-10 4.32357e-14 -1.31993e-12 2.90554 0.965183 0.102902 -1.02296e-10 4.27387e-14 -1.31754e-12 10.2786 0.731801 0.0259123 -1.02307e-10 3.89618e-14 -1.30721e-12 2.22167 -0.733487 -0.20892 -1.04849e-14 3.88251e-18 -3.47873e-16 -2.22274e-13 2.60905e-16 -3.97569e-15 -3.78958e-12 -1.13009e-12 -1.59028e-14 -4.33686e-11 1.16351e-12 -5.88403e-13 -1.023e-10 7.10821e-14 -1.31993e-12 -1.76664e-10 1.20861e-13 -2.26376e-12 -1.02308e-10 7.51406e-14 -1.30085e-12 -7.73091 5.47488 -0.417314 -1.023e-10 7.13637e-14 -1.31675e-12 -2.90554 0.965183 -0.102902 -1.02303e-10 7.14631e-14 -1.31754e-12 -10.2786 0.731801 -0.0259123 -1.02293e-10 7.39479e-14 -1.32311e-12 -2.22167 -0.733487 0.20892 -2.03217e-16 0.0 -3.88251e-19 0.860054 -4.41146 -0.0729722 -0.00213157 2.4394 -0.0112562 -0.47449 1.97259 0.0938441 2.03217e-16 0.0 3.88251e-19 -0.0776456 -2.42096 0.0232534 0.00766748 -1.16603 0.0659967 0.465732 3.58744 -0.125209
74.8767 83.6702 13.6603 -178.657 3.1785 177.657 1.51887 3.43884 0.933268 -0.355973 0.165836 0.407212 1.68076 1.52579 1.51652 -0.689034 1.62693 1.89477 -0.0 0.0 0.0 -0.0 0.0 0.0 3.16284e-15 -1.57386e-14 -2.24638e-14 22.1375 5.05677 -1.41322 -5.0619 -2.4969 7.68074 0.064186 -5.62757 -0.777213 -2.60619e-10 -7.30955e-11 -6.50754e-11 -4.49023e-10 -1.28884e-10 -1.15533e-10 -2.60613e-10 -7.30937e-11 -6.50842e-11 7.73091 5.47488 0.417314 -2.60617e-10 -7.30948e-11 -6.50763e-11 2.90554 0.965183 0.102902 -2.60605e-10 -7.30951e-11 -6.50732e-11 10.2786 0.731801 0.0259123 -2.60618e-10 -7.30984e-11 -6.50627e-11 2.22167 -0.733487 -0.20892 3.14956e-15 -1.57386e-14 -2.28024e-14 -21.21 8.63993 -0.299659 7.09745 -4.11966 -9.9436 -0.00443984 -1.48534 0.208501 -1.10329e-10 -6.88778e-11 4.6854e-12 -1.90336e-10 -1.19325e-10 8.25553e-12 -1.10339e-10 -6.88762e-11 4.70369e-12 -7.73091 5.47488 -0.417314 -1.10331e-10 -6.88796e-11 4.68779e-12 -2.90554 0.965183 -0.102902 -1.10334e-10 -6.88799e-11 4.68594e-12 -10.2786 0.731801 -0.0259123 -1.10321e-10 -6.88762e-11 4.68419e-12 -2.22167 -0.733487 0.20892 -2.03217e-16 0.0 -3.88251e-19 3.6418 -4.89666 4.00821 0.0726375 9.17009 0.206803 -1.67942 -6.00301 -7.53171 2.03217e-16 0.0 3.88251e-19 0.580524 -8.86737 -1.94319 -0.0401203 10.8946 -0.144258 0.898641 -1.33915 3.85906
74.8072 83.7687 13.4829 -178.648 3.2467 177.678 2.48239 7.07599 1.92295 -0.888067 0.343026 0.814664 3.36717 3.13787 3.11751 -1.52878 3.3306 3.8937 -0.0 0.0 0.0 -0.0 0.0 0.0 1.7207e-14 -3.34936e-14 -4.63448e-14 45.8182 10.3788 -2.95221 -9.69331 -4.98796 15.8487 -0.037266 -11.5938 -1.62704 -4.30731e-10 -1.59217e-10 -1.26517e-10 -7.41719e-10 -2.80483e-10 -2.25017e-10 -4.30721e-10 -1.59218e-10 -1.26522e-10 7.73091 5.47488 0.417314 -4.3073e-10 -1.59217e-10 -1.26519e-10 2.90554 0.965183 0.102902 -4.30716e-10 -1.59217e-10 -1.26515e-10 10.2786 0.731801 0.0259123 -4.3073e-10 -1.5922e-10 -1.26505e-10 2.22167 -0.733487 -0.20892 1.71776e-14 -3.34938e-14 -4.65684e-14 -43.5245 17.7977 -0.659805 13.0847 -8.07919 -20.6412 0.00269395 -3.07237 0.431757 -1.24752e-10 -1.61289e-10 1.41865e-11 -2.15091e-10 -2.79439e-10 2.48401e-11 -1.24765e-10 -1.6129e-10 1.4204e-11 -7.73091 5.47488 -0.417314 -1.24757e-10 -1.61293e-10 1.41881e-11 -2.90554 0.965183 -0.102902 -1.24761e-10 -1.61294e-10 1.4185e-11 -10.2786 0.731801 -0.0259123 -1.24744e-10 -1.61288e-10 1.41875e-11 -2.22167 -0.733487 0.20892 -2.03217e-16 0.0 -3.88251e-19 6.67022 -5.38727 8.32114 0.0939174 16.3008 0.44992 -5.29463 -14.0136 -15.9899 2.03217e-16 0.0 3.88251e-19 0.790464 -15.667 -4.07057 0.0128508 23.7235 -0.395847 2.10453 -6.52862 8.10116
74.7639 83.8636 13.3034 -178.607 3.3035 177.758 3.19512 10.3126 2.81082 -1.35815 0.508217 1.17258 4.7996 4.56452 4.56244 -2.39032 4.85941 5.70258 -0.0 0.0 0.0 -0.0 0.0 0.0 3.04636e-14 -4.72231e-14 -6.75903e-14 67.1831 15.1327 -4.37516 -13.2252 -6.95342 23.2007 -0.282851 -16.87 -2.42481 -5.7724e-10 -2.19371e-10 -1.92586e-10 -9.93692e-10 -3.86792e-10 -3.4204e-10 -5.77227e-10 -2.19374e-10 -1.92587e-10 7.73091 5.47488 0.417314 -5.7724e-10 -2.19371e-10 -1.92589e-10 2.90554 0.965183 0.102902 -5.77224e-10 -2.19371e-10 -1.92585e-10 10.2786 0.731801 0.0259123 -5.7724e-10 -2.19373e-10 -1.92574e-10 2.22167 -0.733487 -0.20892 3.04185e-14 -4.72235e-14 -6.77114e-14 -63.333 25.9168 -0.988165 17.1546 -10.8711 -30.3533 0.0191946 -4.45578 0.627189 -1.26386e-10 -2.06775e-10 1.66961e-11 -2.17679e-10 -3.58216e-10 2.92941e-11 -1.264e-10 -2.06779e-10 1.67128e-11 -7.73091 5.47488 -0.417314 -1.26392e-10 -2.06781e-10 1.66969e-11 -2.90554 0.965183 -0.102902 -1.26397e-10 -2.06783e-10 1.66929e-11 -10.2786 0.731801 -0.0259123 -1.26377e-10 -2.06776e-10 1.66988e-11 -2.22167 -0.733487 0.20892 -2.03217e-16 0.0 -3.88251e-19 9.41019 -5.77074 12.1889 0.0572885 22.6302 0.687941 -10.614 -20.3243 -24.2556 2.03217e-16 0.0 3.88251e-19 0.483544 -21.6579 -6.24908 0.175387 35.0141 -0.68002 3.83282 -10.9608 12.0469
74.7069 83.9497 13.131 -178.613 3.383 177.925 3.52398 12.5584 3.40494 -1.66852 0.6435 1.40661 5.76771 5.53965 5.60496 -3.08398 5.97062 7.01966 -0.0 0.0 0.0 -0.0 0.0 0.0 4.17512e-14 -5.08889e-14 -8.22472e-14 82.2034 18.503 -5.37919 -15.3737 -8.11804 28.3611 -0.541082 -20.4339 -3.00145 -6.64745e-10 -2.14604e-10 -2.70223e-10 -1.14385e-09 -3.79876e-10 -4.77907e-10 -6.6473e-10 -2.14608e-10 -2.70223e-10 7.73091 5.47488 0.417314 -6.64745e-10 -2.14604e-10 -2.70226e-10 2.90554 0.965183 0.102902 -6.64729e-10 -2.14604e-10 -2.70222e-10 10.2786 0.731801 0.0259123 -6.64745e-10 -2.14606e-10 -2.7021e-10 2.22167 -0.733487 -0.20892 4.16915e-14 -5.08893e-14 -8.22969e-14 -77.1285 31.4428 -1.13789 19.3361 -12.199 -37.0917 0.0349745 -5.33036 0.751324 -9.60464e-11 -1.34953e-10 1.72704e-12 -1.6485e-10 -2.33653e-10 3.42148e-12 -9.60611e-11 -1.34957e-10 1.74294e-12 -7.73091 5.47488 -0.417314 -9.60535e-11 -1.34959e-10 1.72704e-12 -2.90554 0.965183 -0.102902 -9.60593e-11 -1.34961e-10 1.72307e-12 -10.2786 0.731801 -0.0259123 -9.60376e-11 -1.34954e-10 1.73022e-12 -2.22167 -0.733487 0.20892 -2.03217e-16 0.0 -3.88251e-19 11.2803 -5.96242 14.9296 -0.00329454 26.9577 0.871477 -15.4876 -23.9706 -30.5509 2.03217e-16 0.0 3.88251e-19 -0.149957 -25.7088 -8.23377 0.371149 42.4609 -0.929881 5.38838 -13.7337 15.0017
74.5857 84.0246 12.9575 -178.925 3.5427 178.124 3.39023 13.4331 3.55031 -1.74186 0.74079 1.4632 6.16629 5.88206 6.08336 -3.46394 6.52327 7.65146 -0.0 0.0 0.0 -0.0 0.0 0.0 5.2908e-14 -3.91611e-14 -8.83835e-14 88.0644 19.9944 -5.68521 -16.1463 -8.51625 30.3807 -0.648355 -21.5993 -3.19969 -6.64188e-10 -1.15629e-10 -3.67871e-10 -1.14197e-09 -2.08646e-10 -6.46673e-10 -6.64176e-10 -1.15634e-10 -3.67875e-10 7.73091 5.47488 0.417314 -6.64189e-10 -1.15629e-10 -3.67874e-10 2.90554 0.965183 0.102902 -6.64175e-10 -1.15629e-10 -3.6787e-10 10.2786 0.731801 0.0259123 -6.6419e-10 -1.1563e-10 -3.67859e-10 2.22167 -0.733487 -0.20892 5.28318e-14 -3.91611e-14 -8.84006e-14 -82.6482 33.3535 -0.945302 19.995 -12.4743 -39.5214 0.0406462 -5.54698 0.782219 -1.41264e-11 1.25565e-10 -6.0885e-11 -2.2563e-11 2.1809e-10 -1.04984e-10 -1.41386e-11 1.25561e-10 -6.08698e-11 -7.73091 5.47488 -0.417314 -1.41316e-11 1.25559e-10 -6.08857e-11 -2.90554 0.965183 -0.102902 -1.41389e-11 1.25559e-10 -6.08883e-11 -10.2786 0.731801 -0.0259123 -1.41187e-11 1.25565e-10 -6.08833e-11 -2.22167 -0.733487 0.20892 -2.03217e-16 0.0 -3.88251e-19 11.8468 -5.93405 16.111 -0.035165 28.4711 0.948117 -17.6111 -25.0748 -33.158 2.03217e-16 0.0 3.88251e-19 -0.759498 -27.1345 -9.75946 0.447769 44.4314 -1.00927 5.97774 -14.2469 16.3315
